<svg width="678" height="310" viewBox="0 0 678 310" fill="none" xmlns="http://www.w3.org/2000/svg">
<path d="M293.861 308.674L325.42 129.697C327.021 124.731 330.174 120.754 334.975 117.789C340.717 114.47 347.683 112.705 355.897 112.446L401.953 112.399L399.788 124.378L367.311 308.65H293.861V308.674Z" fill="url(#paint0_linear_21_9)"/>
<path d="M516.988 112.258L482.346 308.674H409.766L444.385 112.258H516.988Z" fill="url(#paint1_linear_21_9)"/>
<path d="M41.2222 70.0375H113.872V69.9905C113.872 69.9905 157.575 69.7787 174.308 69.7787C208.526 69.7787 228.719 92.8421 224.129 127.908C220.035 159.35 192.194 177.989 162.329 178.224C110.436 178.624 103.376 248.073 157.646 248.073C183.698 248.073 216.01 245.555 247.263 221.032C282.118 193.709 290.684 165.139 297.156 128.214C301.157 105.362 296.097 62.8596 274.61 37.7723C253.1 12.7084 224.035 0.188277 187.369 0.188277C150.703 0.188277 53.9071 0 53.9071 0C53.9071 0 47.6235 34.9011 41.2222 70.0375Z" fill="url(#paint2_linear_21_9)"/>
<path d="M0.272797 308.391L28.6079 147.653C28.6079 147.653 74.6171 147.818 80.4065 147.7C107.259 147.7 118.485 112.164 141.619 112.164C145.055 112.164 173.813 112.093 173.813 112.093C187.51 112.093 192.876 124.637 192.076 130.308C190.593 140.734 184.38 146.712 171.013 146.712L170.989 146.806C170.989 146.806 162.093 146.876 157.104 146.806C131.476 146.5 100.552 157.726 93.5621 191.262C85.2075 238.565 72.8285 308.415 72.8285 308.415H0.272797V308.391Z" fill="url(#paint3_linear_21_9)"/>
<path d="M50.9888 84.6287H31.2673C29.714 84.6287 28.2549 85.8759 27.996 87.4057C27.7371 88.9589 28.7491 90.2062 30.2788 90.2062H50.0239C51.5536 90.2062 53.0363 88.9589 53.2952 87.4057C53.5776 85.8995 52.5656 84.6287 50.9888 84.6287ZM48.4707 98.9845H28.7256C27.2194 98.9845 25.7367 100.232 25.4778 101.785C25.1954 103.315 26.2309 104.562 27.7607 104.562H47.4823C49.0355 104.562 50.4946 103.315 50.7535 101.785C51.0359 100.232 50.0239 98.9845 48.4707 98.9845ZM43.4579 127.484H23.7363C22.1831 127.484 20.7239 128.755 20.4651 130.285C20.2062 131.815 21.2182 133.085 22.7479 133.085H42.493C44.0463 133.085 45.5054 131.815 45.7642 130.285C46.0231 128.755 45.0112 127.484 43.4579 127.484ZM45.9761 113.246H26.2545C24.7012 113.246 23.2421 114.47 22.9832 116.047C22.7244 117.576 23.7363 118.824 25.2896 118.824H45.0112C46.5409 118.824 48.0235 117.576 48.2824 116.047C48.5413 114.47 47.5058 113.246 45.9761 113.246ZM646.426 30.5943C624.892 10.755 597.734 0.847168 564.951 0.847168H464.013L451.375 72.5556H524.119L552.171 73.3087C565.492 73.7559 576.765 76.9801 586.037 83.0048C601.052 93.3598 606.465 110.399 602.276 134.121L580.977 255.063C573.423 293.988 622.374 309.356 643.978 309.356C646.261 296.977 672.501 147.629 672.501 147.629H672.384L674.761 134.144C682.598 89.712 673.137 55.1639 646.426 30.5943ZM345.777 17.4623C341.918 38.3841 334.104 81.9222 334.104 81.9222C338.129 77.4743 342.129 75.7563 345.448 74.6737C349.566 73.3087 354.814 72.9087 363.028 72.6733L409.108 72.6262L422.098 0.847168H379.643C359.168 0.847168 348.531 8.16627 345.777 17.4623Z" fill="url(#paint4_linear_21_9)"/>
<defs>
<linearGradient id="paint0_linear_21_9" x1="7.32529" y1="366.797" x2="432.102" y2="176.957" gradientUnits="userSpaceOnUse">
<stop stop-color="#414042"/>
<stop offset="0.0135" stop-color="#3E3D3F"/>
<stop offset="0.1808" stop-color="#262528"/>
<stop offset="0.3491" stop-color="#141417"/>
<stop offset="0.516" stop-color="#08080A"/>
<stop offset="0.681" stop-color="#020203"/>
<stop offset="0.8433"/>
<stop offset="1"/>
</linearGradient>
<linearGradient id="paint1_linear_21_9" x1="25.0114" y1="406.374" x2="449.789" y2="216.533" gradientUnits="userSpaceOnUse">
<stop stop-color="#414042"/>
<stop offset="0.0135" stop-color="#3E3D3F"/>
<stop offset="0.1808" stop-color="#262528"/>
<stop offset="0.3491" stop-color="#141417"/>
<stop offset="0.516" stop-color="#08080A"/>
<stop offset="0.681" stop-color="#020203"/>
<stop offset="0.8433"/>
<stop offset="1"/>
</linearGradient>
<linearGradient id="paint2_linear_21_9" x1="-63.5312" y1="208.258" x2="361.25" y2="18.4159" gradientUnits="userSpaceOnUse">
<stop stop-color="#414042"/>
<stop offset="0.0135" stop-color="#3E3D3F"/>
<stop offset="0.1808" stop-color="#262528"/>
<stop offset="0.3491" stop-color="#141417"/>
<stop offset="0.516" stop-color="#08080A"/>
<stop offset="0.681" stop-color="#020203"/>
<stop offset="0.8433"/>
<stop offset="1"/>
</linearGradient>
<linearGradient id="paint3_linear_21_9" x1="-37.145" y1="267.295" x2="387.633" y2="77.4541" gradientUnits="userSpaceOnUse">
<stop stop-color="#414042"/>
<stop offset="0.0135" stop-color="#3E3D3F"/>
<stop offset="0.1808" stop-color="#262528"/>
<stop offset="0.3491" stop-color="#141417"/>
<stop offset="0.516" stop-color="#08080A"/>
<stop offset="0.681" stop-color="#020203"/>
<stop offset="0.8433"/>
<stop offset="1"/>
</linearGradient>
<linearGradient id="paint4_linear_21_9" x1="680.479" y1="155.087" x2="244.598" y2="155.087" gradientUnits="userSpaceOnUse">
<stop stop-color="#ED1C24"/>
<stop offset="1" stop-color="#BE1E2D"/>
</linearGradient>
</defs>
</svg>
